<svg height="8" viewBox="0 0 64 64" width="8" xmlns="http://www.w3.org/2000/svg"><g id="Filled_outline" data-name="Filled outline"><path d="m30 3a29.835 29.835 0 0 0 -14 4 35.5 35.5 0 0 1 6-1c12.7 0 22 10.3 22 23a23 23 0 0 1 -23 23 22.166 22.166 0 0 1 -17-7.932 28.467 28.467 0 0 0 26 16.932 29 29 0 0 0 0-58z" fill="#f9bb4b"/><path d="m50 45a3 3 0 0 1 -3-3h2a1 1 0 0 0 2 0h2a3 3 0 0 1 -3 3z" fill="#eaa434"/><path d="m34 57a3 3 0 0 1 -3-3h2a1 1 0 0 0 2 0h2a3 3 0 0 1 -3 3z" fill="#eaa434"/><path d="m46 49h-2a1 1 0 0 0 -2 0h-2a3 3 0 0 1 6 0z" fill="#eaa434"/><path d="m53 34h-2a1 1 0 0 0 -2 0h-2a3 3 0 0 1 6 0z" fill="#eaa434"/><path d="m53 27h2v2h-2z" fill="#ffd782"/><path d="m45 38h2v2h-2z" fill="#ffd782"/><path d="m48 23h2v2h-2z" fill="#ffd782"/><path d="m42 52h2v2h-2z" fill="#ffd782"/><g fill="#87cee9"><path d="m26 41a5.006 5.006 0 0 1 -5-5 1 1 0 0 1 2 0 3 3 0 0 0 3 3 1 1 0 0 1 0 2z"/><path d="m26 41a5.006 5.006 0 0 1 -5-5 1 1 0 0 1 2 0 3 3 0 0 0 3 3 1 1 0 0 1 0 2z"/><path d="m18 41a1 1 0 0 1 0-2 3 3 0 0 0 3-3 1 1 0 0 1 2 0 5.006 5.006 0 0 1 -5 5z"/><path d="m22 45a1 1 0 0 1 -1-1 5.006 5.006 0 0 1 5-5 1 1 0 0 1 0 2 3 3 0 0 0 -3 3 1 1 0 0 1 -1 1z"/><path d="m22 45a1 1 0 0 1 -1-1 5.006 5.006 0 0 1 5-5 1 1 0 0 1 0 2 3 3 0 0 0 -3 3 1 1 0 0 1 -1 1z"/><path d="m22 45a1 1 0 0 1 -1-1 3 3 0 0 0 -3-3 1 1 0 0 1 0-2 5.006 5.006 0 0 1 5 5 1 1 0 0 1 -1 1z"/><path d="m36 33a5.006 5.006 0 0 1 -5-5 1 1 0 0 1 2 0 3 3 0 0 0 3 3 1 1 0 0 1 0 2z"/><path d="m36 33a5.006 5.006 0 0 1 -5-5 1 1 0 0 1 2 0 3 3 0 0 0 3 3 1 1 0 0 1 0 2z"/><path d="m28 33a1 1 0 0 1 0-2 3 3 0 0 0 3-3 1 1 0 0 1 2 0 5.006 5.006 0 0 1 -5 5z"/><path d="m32 37a1 1 0 0 1 -1-1 5.006 5.006 0 0 1 5-5 1 1 0 0 1 0 2 3 3 0 0 0 -3 3 1 1 0 0 1 -1 1z"/><path d="m32 37a1 1 0 0 1 -1-1 5.006 5.006 0 0 1 5-5 1 1 0 0 1 0 2 3 3 0 0 0 -3 3 1 1 0 0 1 -1 1z"/><path d="m32 37a1 1 0 0 1 -1-1 3 3 0 0 0 -3-3 1 1 0 0 1 0-2 5.006 5.006 0 0 1 5 5 1 1 0 0 1 -1 1z"/><path d="m20 22a5.006 5.006 0 0 1 -5-5 1 1 0 0 1 2 0 3 3 0 0 0 3 3 1 1 0 0 1 0 2z"/><path d="m20 22a5.006 5.006 0 0 1 -5-5 1 1 0 0 1 2 0 3 3 0 0 0 3 3 1 1 0 0 1 0 2z"/><path d="m12 22a1 1 0 0 1 0-2 3 3 0 0 0 3-3 1 1 0 0 1 2 0 5.006 5.006 0 0 1 -5 5z"/><path d="m16 26a1 1 0 0 1 -1-1 5.006 5.006 0 0 1 5-5 1 1 0 0 1 0 2 3 3 0 0 0 -3 3 1 1 0 0 1 -1 1z"/><path d="m16 26a1 1 0 0 1 -1-1 5.006 5.006 0 0 1 5-5 1 1 0 0 1 0 2 3 3 0 0 0 -3 3 1 1 0 0 1 -1 1z"/><path d="m16 26a1 1 0 0 1 -1-1 3 3 0 0 0 -3-3 1 1 0 0 1 0-2 5.006 5.006 0 0 1 5 5 1 1 0 0 1 -1 1z"/></g><path d="m30 62a30 30 0 0 0 0-60 30.45 30.45 0 0 0 -14.479 4.122 1 1 0 0 0 .689 1.856l.666-.146a29.926 29.926 0 0 1 5.124-.832c11.972 0 21 9.458 21 22a22.025 22.025 0 0 1 -22 22 21.044 21.044 0 0 1 -16.245-7.587 1 1 0 0 0 -1.664 1.072 29.427 29.427 0 0 0 26.909 17.515zm-9-9a24.028 24.028 0 0 0 24-24c0-13.031-9.472-23.328-21.781-23.968a23.977 23.977 0 0 1 6.781-1.032 28 28 0 0 1 0 56 27.2 27.2 0 0 1 -21.864-10.93 22.861 22.861 0 0 0 12.864 3.93z"/><path d="m50 43a1 1 0 0 1 -1-1h-2a3 3 0 0 0 6 0h-2a1 1 0 0 1 -1 1z"/><path d="m34 57a3 3 0 0 0 3-3h-2a1 1 0 0 1 -2 0h-2a3 3 0 0 0 3 3z"/><path d="m43 48a1 1 0 0 1 1 1h2a3 3 0 0 0 -6 0h2a1 1 0 0 1 1-1z"/><path d="m50 33a1 1 0 0 1 1 1h2a3 3 0 0 0 -6 0h2a1 1 0 0 1 1-1z"/><path d="m53 27h2v2h-2z"/><path d="m45 38h2v2h-2z"/><path d="m48 23h2v2h-2z"/><path d="m42 52h2v2h-2z"/><path d="m18 39a1 1 0 0 0 0 2 3 3 0 0 1 3 3 1 1 0 0 0 2 0 3 3 0 0 1 3-3 1 1 0 0 0 0-2 3 3 0 0 1 -3-3 1 1 0 0 0 -2 0 3 3 0 0 1 -3 3zm4-.031a4.988 4.988 0 0 0 1.031 1.031 4.988 4.988 0 0 0 -1.031 1.031 4.988 4.988 0 0 0 -1.031-1.031 4.988 4.988 0 0 0 1.031-1.031z"/><path d="m31 36a1 1 0 0 0 2 0 3 3 0 0 1 3-3 1 1 0 0 0 0-2 3 3 0 0 1 -3-3 1 1 0 0 0 -2 0 3 3 0 0 1 -3 3 1 1 0 0 0 0 2 3 3 0 0 1 3 3zm1-5.031a4.988 4.988 0 0 0 1.031 1.031 4.988 4.988 0 0 0 -1.031 1.031 4.988 4.988 0 0 0 -1.031-1.031 4.988 4.988 0 0 0 1.031-1.031z"/><path d="m12 22a3 3 0 0 1 3 3 1 1 0 0 0 2 0 3 3 0 0 1 3-3 1 1 0 0 0 0-2 3 3 0 0 1 -3-3 1 1 0 0 0 -2 0 3 3 0 0 1 -3 3 1 1 0 0 0 0 2zm4-2.031a4.988 4.988 0 0 0 1.031 1.031 4.988 4.988 0 0 0 -1.031 1.031 4.988 4.988 0 0 0 -1.031-1.031 4.988 4.988 0 0 0 1.031-1.031z"/></g></svg>